<?xml version="1.0" standalone="no"?>
<!DOCTYPE svg PUBLIC "-//W3C//DTD SVG 20010904//EN"
 "http://www.w3.org/TR/2001/REC-SVG-20010904/DTD/svg10.dtd">
<svg version="1.0" xmlns="http://www.w3.org/2000/svg"
 width="2816.000000pt" height="1536.000000pt" viewBox="0 0 2816.000000 1536.000000"
 preserveAspectRatio="xMidYMid meet">

<g transform="translate(0.000000,1536.000000) scale(0.100000,-0.100000)"
fill="#000000" stroke="none">
<path d="M8315 13637 c-129 -51 -200 -155 -198 -292 1 -67 25 -128 73 -187 31
-37 138 -98 172 -98 10 0 23 -10 28 -22 5 -13 110 -334 234 -713 l225 -691
252 -509 251 -510 -250 -501 -251 -501 -59 -5 c-113 -11 -211 -78 -254 -176
-32 -74 -30 -181 5 -254 15 -31 45 -72 67 -92 22 -20 40 -42 40 -48 0 -12
-261 -1417 -330 -1779 -31 -162 -33 -167 -59 -172 -44 -10 -117 -63 -150 -110
-39 -57 -65 -154 -56 -210 9 -54 45 -133 79 -174 15 -18 51 -44 81 -59 30 -14
55 -27 55 -29 0 -7 111 -1093 119 -1160 9 -80 9 -80 -17 -100 -151 -113 -185
-288 -87 -437 54 -82 198 -142 290 -121 l44 10 228 -275 c125 -151 227 -280
226 -286 -1 -6 -9 -36 -18 -66 -38 -133 35 -280 170 -342 69 -31 181 -32 245
0 49 24 94 61 126 107 l22 29 483 -42 c266 -23 551 -48 632 -54 l149 -12 20
-43 c26 -56 106 -127 165 -147 26 -9 76 -16 112 -16 l66 0 127 -183 c70 -100
166 -237 214 -305 l86 -123 -21 -49 c-26 -60 -28 -147 -4 -216 24 -71 112
-157 183 -178 109 -32 229 -10 295 54 l32 31 814 -304 814 -305 7 -40 c38
-222 332 -316 496 -159 46 43 81 106 90 158 l7 43 808 303 809 303 40 -35
c115 -98 313 -84 415 28 78 87 101 219 55 321 -12 26 -19 52 -16 57 3 5 100
143 215 306 l209 296 63 -2 c117 -4 234 63 280 162 10 21 24 40 30 42 7 3 261
25 564 50 304 25 583 50 620 54 63 8 69 8 83 -12 39 -56 76 -88 128 -114 48
-24 69 -28 137 -28 67 0 88 5 131 27 52 28 113 87 137 135 33 64 38 175 12
241 -14 35 -15 44 -3 60 7 10 109 134 226 275 202 242 215 257 240 250 90 -25
206 9 277 81 114 114 116 303 5 417 -25 25 -54 51 -65 57 -19 10 -18 21 39
594 32 320 60 602 63 626 5 40 9 44 54 64 57 24 112 81 142 147 33 70 30 189
-5 256 -36 69 -112 136 -172 151 -15 3 -29 12 -32 18 -2 6 -33 166 -69 356
-61 318 -107 566 -245 1309 l-51 275 45 45 c66 67 91 129 90 221 -1 163 -108
282 -268 297 l-64 6 -251 497 -251 497 84 174 c46 96 155 318 243 495 180 360
167 328 433 1149 94 292 179 552 188 579 15 44 21 50 59 61 137 41 222 150
223 286 0 93 -24 154 -84 215 -61 61 -121 84 -216 84 -55 0 -78 -6 -128 -31
-70 -35 -127 -95 -144 -152 -6 -21 -19 -42 -27 -47 -9 -4 -95 -28 -191 -53
-294 -76 -701 -184 -999 -264 l-284 -77 -532 -528 c-293 -290 -539 -528 -546
-528 -16 0 -555 158 -919 270 -238 72 -266 79 -420 94 -91 10 -388 42 -660 72
-272 30 -499 54 -505 54 -6 0 -17 17 -24 37 -19 52 -93 127 -149 151 -78 34
-140 38 -219 14 -85 -26 -142 -73 -179 -147 -14 -30 -29 -55 -33 -55 -3 0
-105 -11 -226 -25 -121 -13 -335 -36 -475 -50 -641 -64 -606 -59 -868 -139
-277 -86 -788 -238 -883 -263 l-65 -17 -522 519 c-287 285 -531 525 -543 533
-25 17 -190 63 -919 253 -294 76 -545 143 -557 149 -13 5 -23 18 -23 28 0 28
-52 104 -96 140 -21 17 -58 38 -83 47 -52 18 -163 19 -206 2z m1280 -683 c264
-69 481 -127 482 -127 48 -43 1013 -1012 1013 -1017 0 -5 -64 -61 -141 -126
l-141 -117 -47 23 c-60 29 -142 36 -206 16 -46 -14 -51 -14 -70 3 -134 119
-1462 1350 -1594 1477 l-75 72 150 -40 c82 -21 365 -95 629 -164z m9735 192
c0 -5 -599 -565 -965 -901 -137 -127 -344 -318 -460 -425 -116 -107 -220 -203
-231 -212 -18 -16 -24 -16 -68 -3 -69 21 -122 18 -190 -10 l-60 -24 -45 37
c-103 83 -236 195 -239 201 -1 3 226 234 505 513 l508 507 445 115 c245 64
519 136 610 160 164 44 190 50 190 42z m-10274 -521 c219 -203 461 -428 539
-500 619 -570 755 -700 749 -714 -3 -9 -8 -41 -11 -72 -8 -80 18 -157 74 -219
l43 -48 -101 -259 c-55 -142 -110 -281 -120 -309 l-19 -51 -64 -5 c-46 -4 -81
-14 -123 -37 l-58 -32 -189 128 -189 128 -37 80 c-21 44 -139 285 -262 536
l-225 456 -157 484 c-87 266 -182 557 -211 647 -30 90 -50 162 -45 160 5 -2
188 -169 406 -373z m10459 358 c-4 -10 -63 -191 -132 -403 -319 -983 -262
-836 -530 -1380 -132 -267 -247 -503 -257 -525 -15 -34 -43 -57 -193 -160 -97
-66 -184 -124 -194 -129 -13 -6 -25 -2 -45 13 -34 26 -115 51 -169 51 l-41 0
-89 233 c-49 127 -103 268 -121 312 l-32 79 44 49 c59 65 79 133 70 236 l-6
76 232 215 c127 118 318 293 422 389 202 185 643 594 886 823 80 75 149 137
154 138 4 0 5 -8 1 -17z m-5665 -796 c27 -30 71 -65 97 -78 26 -13 51 -28 55
-34 4 -5 8 -828 8 -1827 l0 -1818 -32 -13 -33 -13 -169 155 c-94 86 -240 221
-326 301 -85 80 -301 280 -480 445 -178 165 -421 390 -540 500 -206 193 -750
694 -1235 1141 -127 117 -241 220 -253 231 -23 18 -23 21 -12 80 10 49 10 76
0 130 l-13 67 49 45 c27 24 99 86 159 136 108 91 112 93 210 120 163 43 806
232 990 290 l170 54 485 51 c409 44 781 84 813 89 5 0 30 -23 57 -52z m1090
-11 c278 -31 555 -60 615 -67 62 -6 149 -23 200 -39 143 -45 761 -227 973
-286 107 -30 202 -60 211 -66 9 -7 84 -70 168 -141 l152 -127 -16 -37 c-15
-37 -15 -159 1 -194 5 -11 -23 -42 -102 -115 -60 -54 -435 -400 -833 -769
-398 -368 -818 -757 -934 -864 -115 -107 -324 -301 -464 -430 -140 -130 -309
-285 -375 -345 -67 -60 -163 -150 -215 -198 -82 -77 -98 -88 -120 -83 -14 4
-30 11 -36 16 -6 6 -9 161 -7 407 1 218 2 1037 2 1819 l0 1423 49 24 c26 14
70 50 97 80 47 53 51 56 89 51 22 -3 267 -29 545 -59z m-3906 -1392 c132 -120
303 -277 380 -348 78 -71 276 -253 441 -404 165 -152 305 -280 310 -285 6 -6
-3 -7 -25 -3 -223 39 -416 24 -641 -50 l-77 -25 -213 95 c-118 52 -331 148
-474 214 l-260 118 -6 65 c-7 78 -34 141 -82 193 l-37 39 49 126 c28 69 81
207 120 306 l69 180 59 7 c32 3 69 11 83 16 19 8 30 6 45 -7 11 -10 128 -116
259 -237z m6500 226 l41 0 119 -310 119 -309 -41 -46 c-46 -52 -74 -124 -78
-200 l-2 -50 -274 -123 c-150 -67 -364 -163 -475 -212 l-201 -89 -74 25 c-140
47 -261 67 -418 67 -80 0 -167 -5 -193 -11 -26 -5 -47 -7 -45 -3 5 11 839 785
1301 1208 l88 81 46 -14 c26 -8 65 -14 87 -14z m-7822 -644 l163 -110 0 -105
c0 -84 4 -113 18 -139 l18 -33 -88 -96 c-278 -302 -367 -400 -379 -418 -15
-22 -28 -91 -143 -715 -95 -515 -101 -544 -111 -533 -4 4 -55 192 -113 417
l-107 409 23 16 c74 50 127 151 127 240 0 59 -23 140 -50 174 l-20 26 242 490
c134 270 246 489 250 488 4 -1 80 -51 170 -111z m9158 -378 l244 -489 -18 -27
c-39 -60 -50 -98 -50 -172 0 -92 28 -153 99 -219 l47 -44 -81 -306 c-44 -168
-94 -355 -110 -416 -16 -60 -31 -103 -35 -95 -5 14 -26 123 -175 914 -43 223
-66 325 -78 340 -10 11 -108 120 -218 241 -110 122 -208 230 -218 242 -17 20
-17 23 4 84 21 62 23 145 4 190 -5 13 31 42 162 133 92 63 170 115 173 115 3
-1 115 -221 250 -491z m-8067 -209 c210 -94 394 -176 410 -181 15 -6 27 -13
27 -16 0 -4 -31 -27 -67 -52 -261 -176 -455 -473 -524 -803 -28 -134 -30 -353
-5 -480 66 -337 242 -613 523 -819 129 -95 341 -187 508 -221 59 -12 70 -17
68 -33 -1 -10 -90 -313 -198 -673 -107 -359 -195 -655 -195 -657 0 -2 -13 -4
-28 -4 -51 0 -126 -29 -178 -68 l-50 -39 -225 106 c-124 58 -315 148 -426 199
l-201 94 -4 76 c-4 85 -21 128 -73 189 -53 62 -125 96 -214 99 l-75 3 -69 153
c-118 264 -383 862 -396 895 -12 30 -11 34 22 75 51 63 69 113 70 193 1 58 -3
81 -26 127 -26 52 -79 111 -123 136 -16 9 -17 16 -7 73 7 35 60 327 119 649
l107 585 156 170 c85 93 185 203 222 243 l68 73 51 -17 c101 -33 243 -1 309
70 14 14 28 26 33 26 5 0 181 -77 391 -171z m6992 135 c84 -69 206 -93 300
-59 22 8 43 15 47 15 3 0 106 -111 229 -246 l222 -246 58 -316 c31 -175 85
-461 118 -638 34 -177 61 -325 61 -330 -1 -5 -20 -21 -44 -36 -78 -50 -125
-140 -126 -240 0 -74 29 -151 76 -199 l36 -37 -110 -248 c-158 -356 -360 -807
-369 -822 -5 -8 -34 -14 -78 -16 -162 -7 -273 -120 -283 -287 l-4 -76 -172
-79 c-94 -43 -288 -133 -431 -200 l-259 -122 -35 30 c-45 39 -108 67 -169 75
l-47 5 -89 297 c-142 473 -306 1025 -309 1040 -1 10 24 19 88 32 249 51 464
168 656 359 113 111 185 211 249 345 197 408 166 881 -81 1266 -71 109 -260
303 -351 359 -31 19 -57 37 -57 40 -1 5 807 368 822 369 5 1 28 -15 52 -35z
m-5688 -389 c256 -42 504 -192 670 -408 96 -124 177 -315 203 -479 20 -124 8
-333 -24 -443 -56 -185 -136 -323 -268 -461 -160 -166 -347 -267 -577 -310
-131 -25 -356 -15 -476 21 -117 34 -236 91 -329 155 -87 60 -224 199 -281 285
-211 320 -239 713 -75 1051 149 307 412 513 750 585 106 22 283 24 407 4z
m4417 -19 c369 -96 666 -394 763 -765 31 -119 41 -305 23 -419 -63 -395 -352
-738 -725 -861 -165 -54 -391 -69 -550 -36 -485 101 -838 509 -862 996 -15
310 94 585 322 815 154 155 330 247 552 289 123 23 351 14 477 -19z m-7554
-1071 l90 -350 -22 -15 c-80 -54 -124 -119 -137 -199 -10 -63 2 -141 29 -193
17 -32 18 -42 8 -57 -42 -58 -401 -491 -407 -491 -4 0 1 44 11 98 10 53 50
264 88 467 90 482 209 1112 217 1150 6 30 6 30 20 -15 7 -25 54 -202 103 -395z
m10410 80 c56 -300 111 -595 215 -1160 20 -110 39 -203 42 -207 2 -5 0 -8 -5
-8 -10 0 -70 71 -303 355 l-115 140 25 55 c35 74 35 183 2 253 -21 43 -111
137 -131 137 -5 0 27 138 71 308 43 169 89 344 100 390 12 46 25 80 29 75 4
-4 35 -156 70 -338z m-5858 -25 l275 -254 -10 -36 c-12 -46 -3 -128 21 -182
45 -103 138 -167 253 -176 97 -7 159 17 229 87 71 71 95 138 88 242 l-5 69
185 172 c327 304 423 391 426 387 2 -2 -2 -35 -10 -74 -8 -38 -17 -128 -20
-200 -20 -423 169 -817 514 -1078 207 -156 439 -243 699 -262 73 -6 93 -10 97
-24 3 -9 44 -151 91 -316 65 -224 247 -838 307 -1031 1 -6 -19 -32 -46 -58
l-50 -46 -250 99 c-138 54 -324 127 -413 162 l-163 63 0 51 c0 38 -8 69 -31
113 -35 70 -71 104 -149 141 -63 29 -158 35 -223 12 -87 -30 -175 -131 -192
-221 l-6 -35 -177 -53 c-97 -29 -187 -60 -200 -70 -12 -9 -72 -102 -133 -207
-246 -423 -283 -485 -286 -481 -3 2 20 91 50 197 31 107 81 289 112 404 91
339 82 315 114 315 85 0 192 74 238 164 76 150 17 329 -135 403 -50 25 -68 28
-143 27 l-86 -1 -45 76 c-143 242 -302 498 -320 518 -29 31 -64 29 -96 -6 -15
-16 -103 -155 -196 -310 l-170 -282 -70 7 c-59 5 -81 2 -127 -15 -195 -74
-264 -304 -141 -466 45 -58 119 -102 192 -112 l54 -8 123 -445 c67 -245 121
-449 120 -454 -3 -9 -96 145 -291 484 -59 102 -110 188 -114 192 -4 4 -93 34
-197 66 l-189 58 -8 37 c-28 135 -149 230 -293 230 -160 0 -281 -112 -303
-279 l-7 -55 -350 -135 c-192 -74 -377 -146 -410 -158 l-60 -23 -49 44 -48 43
61 208 c34 114 126 423 205 687 l142 480 80 8 c129 13 246 35 329 62 455 149
798 542 880 1009 19 111 19 334 0 441 -8 44 -15 86 -15 93 0 18 26 -4 342
-298z m-4313 -980 l46 0 84 -193 c47 -105 156 -349 243 -542 l157 -350 -29
-30 c-70 -72 -92 -197 -56 -305 14 -40 35 -70 78 -114 l59 -59 -225 -804
c-123 -443 -226 -806 -228 -807 -1 -2 -22 -6 -45 -9 l-43 -5 -92 111 c-51 62
-153 183 -226 270 l-133 158 15 47 c20 59 20 156 0 215 -20 60 -84 132 -145
163 -27 13 -49 27 -49 30 0 5 -75 735 -109 1059 l-18 180 21 15 c93 67 129
131 134 240 3 53 -1 88 -13 120 -9 25 -18 52 -21 60 -3 9 86 127 225 297 l231
281 46 -14 c26 -8 68 -14 93 -14z m9946 -46 c33 -42 138 -169 233 -282 117
-141 170 -212 166 -222 -28 -62 -43 -123 -44 -166 0 -94 48 -189 122 -240 33
-23 39 -32 35 -53 -3 -15 -31 -287 -62 -606 -31 -319 -58 -589 -60 -600 -3
-13 -21 -27 -50 -38 -58 -24 -129 -102 -150 -167 -21 -63 -21 -147 0 -209 l16
-48 -203 -244 c-112 -135 -212 -256 -224 -271 -18 -23 -25 -25 -66 -21 l-45 5
-108 387 c-85 305 -284 1025 -334 1208 -8 29 -6 33 29 57 87 57 140 187 121
292 -11 60 -45 126 -80 158 -12 11 -21 22 -21 27 0 4 54 126 119 271 66 144
173 385 239 533 l120 270 64 7 c34 3 74 11 88 17 14 5 27 10 30 10 3 0 32 -34
65 -75z m-4977 -446 c50 -84 114 -188 142 -232 l51 -78 -26 -38 c-53 -77 -68
-174 -39 -269 12 -40 30 -68 74 -113 l58 -60 -43 -162 c-24 -88 -80 -291 -125
-451 -45 -159 -104 -375 -130 -479 -27 -103 -51 -190 -53 -193 -7 -7 -20 39
-261 910 l-104 377 57 58 c111 110 123 263 32 391 -20 27 -20 28 0 57 10 16
74 120 141 232 66 111 124 202 128 202 4 0 48 -69 98 -152z m-3571 -1225 l423
-197 0 -57 c0 -232 250 -380 451 -267 l38 21 68 -60 c37 -33 135 -115 216
-183 125 -104 147 -126 142 -144 -15 -50 -17 -162 -2 -203 l15 -43 -272 -242
c-149 -134 -288 -259 -310 -279 l-40 -36 -45 20 c-31 15 -70 22 -120 23 l-73
2 -37 68 c-21 38 -158 301 -306 584 -147 283 -344 661 -437 839 -133 255 -166
326 -157 337 6 8 14 14 18 14 3 0 196 -89 428 -197z m7402 183 c9 -11 -9 -54
-88 -202 -54 -104 -251 -479 -436 -834 -186 -355 -356 -679 -378 -720 l-41
-76 -70 0 c-52 1 -84 -5 -118 -21 l-46 -21 -264 236 c-145 129 -285 255 -311
278 l-48 43 16 69 c15 60 15 77 4 128 -7 32 -13 62 -14 65 0 3 98 88 217 188
l217 182 53 -28 c77 -39 180 -39 260 0 108 53 172 157 170 278 l-1 57 47 21
c26 11 216 99 422 195 206 97 380 176 386 176 6 0 17 -6 23 -14z m303 -411
c49 -176 149 -538 224 -804 l135 -484 -50 -46 c-27 -25 -59 -67 -71 -93 -19
-43 -24 -47 -63 -52 -54 -8 -653 -60 -912 -81 -110 -8 -226 -18 -257 -21 -38
-4 -58 -2 -58 5 0 6 -14 26 -30 45 l-31 35 124 233 c69 128 258 490 422 803
164 314 324 620 357 681 l58 111 32 -6 32 -7 88 -319z m-8244 213 c33 -62 233
-444 445 -848 211 -404 400 -762 418 -796 l33 -60 -34 -47 c-18 -26 -39 -47
-46 -47 -22 0 -729 60 -953 80 -118 11 -232 20 -253 20 -37 0 -39 2 -65 55
-15 33 -45 73 -74 98 l-48 42 84 295 c45 162 111 396 145 520 34 124 92 335
130 470 38 135 73 264 80 288 10 39 13 42 44 42 33 0 36 -3 94 -112z m2443 77
c70 -63 114 -80 209 -80 93 0 136 16 204 76 l35 30 151 -42 c116 -33 154 -48
162 -64 6 -11 134 -233 285 -493 l275 -474 -23 -51 c-71 -163 18 -363 184
-412 140 -42 281 17 352 146 27 48 30 63 30 139 0 68 -5 94 -23 131 l-22 46
228 394 c125 217 251 435 280 485 29 51 58 97 65 103 8 6 77 29 156 51 l142
41 41 -35 c121 -104 295 -99 410 12 l37 35 418 -165 418 -166 6 -53 c3 -30 9
-65 13 -79 6 -23 0 -32 -61 -80 -37 -30 -136 -112 -219 -181 l-152 -127 -53
26 c-106 53 -244 29 -332 -56 -62 -60 -90 -124 -91 -209 l-1 -72 -330 -172
c-181 -94 -479 -250 -661 -346 l-332 -174 -28 27 c-106 99 -284 99 -401 0
l-31 -26 -184 96 c-100 53 -262 138 -358 188 -96 51 -311 164 -477 251 l-301
158 -4 76 c-4 85 -21 127 -74 189 -81 95 -232 125 -344 70 l-53 -27 -219 182
c-199 165 -219 184 -213 207 3 14 9 51 12 82 l5 57 117 45 c64 25 222 86 351
135 129 50 262 101 295 115 33 13 62 25 64 25 2 1 21 -15 42 -34z m446 -1519
c274 -145 572 -302 662 -349 l165 -86 2 -63 c4 -110 59 -200 155 -253 49 -27
63 -30 144 -30 74 0 97 4 132 23 100 53 163 153 163 259 l0 62 43 24 c23 13
242 129 487 258 245 128 524 275 620 325 l174 92 39 -33 c22 -19 60 -41 85
-49 58 -20 165 -20 217 0 22 9 47 16 56 17 8 1 153 -122 321 -273 302 -271
306 -275 293 -300 -24 -46 -28 -113 -11 -180 9 -35 21 -69 26 -75 11 -14 14
-9 -151 -240 -63 -88 -151 -213 -194 -277 l-79 -117 -71 1 c-146 2 -270 -97
-293 -235 l-7 -41 -220 -83 c-121 -46 -486 -183 -812 -304 l-592 -221 -42 35
c-107 92 -288 90 -385 -5 l-32 -30 -393 147 c-217 80 -581 217 -811 303 l-416
156 -6 39 c-9 57 -49 129 -92 167 -61 53 -118 74 -206 74 l-76 1 -145 210
c-80 116 -175 253 -211 305 l-66 95 20 53 c24 62 26 152 5 211 l-14 41 237
213 c130 116 269 242 309 278 l72 67 43 -21 c29 -15 67 -23 120 -25 65 -4 85
0 130 21 29 13 64 36 78 50 14 14 26 25 27 26 1 1 226 -118 500 -263z"/>
</g>
</svg>
